<svg xmlns="http://www.w3.org/2000/svg" xmlns:xlink="http://www.w3.org/1999/xlink" aria-hidden="true" role="img" class="iconify iconify--logos" width="31.88" height="32" preserveAspectRatio="xMidYMid meet" viewBox="0 0 256 257">
    <defs>
        <linearGradient id="IconifyId1813088fe1fbc01fb466" x1="-.828%" x2="100.828%" y1="103.566%" y2="-3.566%">
            <stop offset="0%" stop-color="#41D1FF"></stop>
            <stop offset="100%" stop-color="#BD34FE"></stop>
        </linearGradient>
        <linearGradient id="IconifyId1813088fe1fbc01fb467" x1="7.416%" x2="93.318%" y1="9.24%" y2="91.383%">
            <stop offset="0%" stop-color="#FFEA83"></stop>
            <stop offset="50.032%" stop-color="#FFDD35"></stop>
            <stop offset="100%" stop-color="#FFD035"></stop>
        </linearGradient>
    </defs>
    <path fill="url(#IconifyId1813088fe1fbc01fb466)" d="M255.153 166.634c-1.12 3.837-2.357 7.557-3.71 11.16c-1.42 3.75-2.957 7.37-4.61 10.86c-1.653 3.49-3.443 6.84-5.37 10.05c-1.927 3.21-3.99 6.27-6.19 9.18c-2.2 2.91-4.597 5.62-7.18 8.13c-2.583 2.51-5.383 4.8-8.39 6.86c-3.007 2.06-6.25 3.86-9.72 5.4c-3.47 1.54-7.2 2.76-11.18 3.66c-3.98 1-8.23.69-12.75-.92c-.793-.28-1.587-.58-2.38-.9c-2.518-.99-4.997-2.1-7.436-3.33c-2.439-1.23-4.812-2.58-7.118-4.05c-2.306-1.47-4.52-3.05-6.643-4.74c-2.123-1.69-4.13-3.48-6.022-5.37c-1.892-1.89-3.644-3.87-5.257-5.94c-3.056-3.92-5.49-8.19-7.29-12.8c-1.07-2.74-1.95-5.54-2.64-8.39c-.69-2.85-1.19-5.74-1.5-8.66c-.31-2.92-.42-5.88-.34-8.84s.37-5.9.96-8.82c.59-2.92 1.37-5.78 2.34-8.58c.97-2.8 2.13-5.52 3.48-8.16c1.35-2.64 2.89-5.18 4.62-7.62c1.73-2.44 3.64-4.76 5.73-6.96c2.09-2.2 4.37-4.26 6.84-6.18c2.47-1.92 5.12-3.68 7.95-5.26c2.83-1.58 5.86-2.94 9.06-4.08c3.2-1.14 6.6-1.98 10.18-2.52c3.58-.54 7.36-.78 11.32-.72c3.96.06 8.1.4 12.4.99c2.396.32 4.793.74 7.19 1.25c4.793 1.02 9.473 2.52 14.04 4.5c4.567 1.98 8.964 4.45 13.19 7.4c4.226 2.95 8.242 6.38 12.049 10.29c1.892 1.94 3.734 3.96 5.527 6.06c1.793 2.1 3.522 4.28 5.187 6.54c1.665 2.26 3.246 4.6 4.743 7.02c1.497 2.42 2.903 4.9 4.22 7.44c1.317 2.54 2.532 5.14 3.656 7.8c1.124 2.66 2.138 5.38 3.05 8.16c1.077 3.21 1.914 6.51 2.51 9.87c.596 3.36.942 6.79.996 8.58l.02.66z"></path>
    <path fill="url(#IconifyId1813088fe1fbc01fb467)" d="m119.83 23.033l-50.08 141.52h-21.54l50.02-141.52h21.6z"></path>
    <path fill="#FFD035" d="M119.83 23.033L69.75 164.553H48.21L98.23 23.033z"></path>
    <path fill="url(#IconifyId1813088fe1fbc01fb467)" d="m197.3 23.033l-74.22 210.26h-21.55l74.22-210.26h21.55z"></path>
</svg>
